<svg width="504" height="379" xmlns="http://www.w3.org/2000/svg" xmlns:xlink="http://www.w3.org/1999/xlink"><defs><linearGradient x1="47.736%" y1="44.42%" x2="47.965%" y2="54.338%" id="a"><stop stop-color="#4462BD" offset="0%"/><stop stop-color="#8DABF5" stop-opacity=".2" offset="81.021%"/><stop stop-color="#EEFFFB" stop-opacity="0" offset="100%"/></linearGradient><linearGradient x1="54.131%" y1="0%" x2="54.131%" y2="88.678%" id="b"><stop stop-color="#6394FF" stop-opacity="0" offset="0%"/><stop stop-color="#60A0FF" stop-opacity=".058" offset="27.019%"/><stop stop-color="#EEF2FF" offset="100%"/></linearGradient><linearGradient x1="54.131%" y1="0%" x2="54.131%" y2="88.678%" id="c"><stop stop-color="#6394FF" stop-opacity="0" offset="0%"/><stop stop-color="#6093FF" stop-opacity=".058" offset="26.455%"/><stop stop-color="#57D4FF" offset="100%"/></linearGradient><linearGradient x1="53.649%" y1="59.273%" x2="12.783%" y2="35.667%" id="d"><stop stop-color="#FFF" stop-opacity="0" offset="0%"/><stop stop-color="#6D9EFF" stop-opacity=".457" offset="45.681%"/><stop stop-color="#33579E" offset="100%"/></linearGradient><linearGradient x1="53.649%" y1="59.273%" x2="12.783%" y2="35.667%" id="e"><stop stop-color="#FFF" stop-opacity="0" offset="0%"/><stop stop-color="#6D9EFF" stop-opacity=".457" offset="45.681%"/><stop stop-color="#33579E" offset="100%"/></linearGradient><linearGradient x1="53.649%" y1="59.273%" x2="12.783%" y2="35.667%" id="f"><stop stop-color="#FFF" stop-opacity="0" offset="0%"/><stop stop-color="#6D9EFF" stop-opacity=".457" offset="45.681%"/><stop stop-color="#33579E" offset="100%"/></linearGradient><linearGradient x1="38.186%" y1="65.966%" x2="87.822%" y2="40.554%" id="g"><stop stop-color="#3C5B91" offset="0%"/><stop stop-color="#E1E8F8" offset="99.904%"/></linearGradient><linearGradient x1="19.535%" y1="64.874%" x2="81.407%" y2="52.176%" id="h"><stop stop-color="#EBF0FF" offset="0%"/><stop stop-color="#ACCAFE" offset="100%"/></linearGradient><linearGradient x1="-145.27%" y1="-3.939%" x2="100%" y2="63.198%" id="i"><stop stop-color="#170022" stop-opacity="0" offset="0%"/><stop stop-color="#895BF9" stop-opacity=".708" offset="33.522%"/><stop stop-color="#0497E0" offset="100%"/></linearGradient><linearGradient x1="114.537%" y1="35.578%" x2="46.175%" y2="60.528%" id="j"><stop stop-color="#E7EFFF" offset="0%"/><stop stop-color="#789FCE" offset="100%"/></linearGradient><linearGradient x1="20.914%" y1="11.749%" x2="63.286%" y2="100%" id="k"><stop stop-color="#F7FCFF" offset="0%"/><stop stop-color="#ABC9F3" offset="100%"/></linearGradient><linearGradient x1="15.806%" y1="22.286%" x2="83.232%" y2="95.529%" id="l"><stop stop-color="#FBFBFB" offset="0%"/><stop stop-color="#B7B7B7" offset="100%"/></linearGradient><linearGradient x1="16.836%" y1="10.492%" x2="74.639%" y2="75.326%" id="m"><stop stop-color="#FFF" offset="0%"/><stop stop-color="#9AB6D0" offset="100%"/></linearGradient><linearGradient x1="26.973%" y1="16.018%" x2="53.069%" y2="105.03%" id="n"><stop stop-color="#D1DAFF" offset="0%"/><stop stop-color="#263C52" offset="100%"/></linearGradient><linearGradient x1="27.635%" y1="16.018%" x2="52.98%" y2="105.03%" id="o"><stop stop-color="#E9F4FF" offset="0%"/><stop stop-color="#6A93C1" offset="100%"/></linearGradient><linearGradient x1="63.945%" y1="136.793%" x2="50%" y2="5.022%" id="p"><stop stop-color="#3669DA" stop-opacity="0" offset="0%"/><stop stop-color="#6F60FF" stop-opacity=".058" offset="28.917%"/><stop stop-color="#57C8FF" offset="100%"/></linearGradient><linearGradient x1="67.955%" y1="13.178%" x2="15.059%" y2="97.999%" id="q"><stop stop-color="#F3F8FF" offset="0%"/><stop stop-color="#D8E2E7" offset="99.951%"/></linearGradient><linearGradient x1="96.271%" y1="30.256%" x2="29.355%" y2="67.291%" id="r"><stop stop-color="#92ABCC" offset="0%"/><stop stop-color="#FFF" offset="100%"/></linearGradient><linearGradient x1="67.955%" y1="9.155%" x2="15.059%" y2="103.244%" id="t"><stop stop-color="#F3F8FF" offset="0%"/><stop stop-color="#D8E2E7" offset="99.951%"/></linearGradient><linearGradient x1="44.297%" y1="61.284%" x2="44.297%" y2="31.114%" id="u"><stop stop-color="#B3D0FF" stop-opacity="0" offset="0%"/><stop stop-color="#B0D5FF" stop-opacity=".08" offset="38.333%"/><stop stop-color="#A1D1FF" stop-opacity=".17" offset="100%"/></linearGradient><linearGradient x1="44.297%" y1="61.269%" x2="44.297%" y2="31.14%" id="v"><stop stop-color="#B3D0FF" stop-opacity="0" offset="0%"/><stop stop-color="#B0D5FF" stop-opacity=".08" offset="38.333%"/><stop stop-color="#A1D1FF" stop-opacity=".17" offset="100%"/></linearGradient><linearGradient x1="44.297%" y1="56.327%" x2="44.297%" y2="39.411%" id="x"><stop stop-color="#B3D0FF" stop-opacity="0" offset="0%"/><stop stop-color="#B0D5FF" stop-opacity=".08" offset="38.333%"/><stop stop-color="#A1D1FF" stop-opacity=".17" offset="100%"/></linearGradient><linearGradient x1="184.083%" y1="197.357%" x2="0%" y2="0%" id="z"><stop stop-color="#3669DA" stop-opacity="0" offset="0%"/><stop stop-color="#E360FF" stop-opacity=".058" offset="28.917%"/><stop stop-color="#57C8FF" offset="100%"/></linearGradient><linearGradient x1="54.131%" y1="0%" x2="54.131%" y2="88.678%" id="A"><stop stop-color="#6394FF" stop-opacity="0" offset="0%"/><stop stop-color="#6093FF" stop-opacity=".058" offset="26.455%"/><stop stop-color="#57BCFF" offset="100%"/></linearGradient><linearGradient x1="54.131%" y1="0%" x2="54.131%" y2="88.678%" id="B"><stop stop-color="#6394FF" stop-opacity="0" offset="0%"/><stop stop-color="#6093FF" stop-opacity=".058" offset="26.455%"/><stop stop-color="#5782FF" offset="100%"/></linearGradient><linearGradient x1="156.226%" y1="45.36%" x2="26.702%" y2="54.268%" id="D"><stop stop-color="#A9A9A9" offset="0%"/><stop stop-color="#3754D6" offset="100%"/></linearGradient><linearGradient x1="156.226%" y1="45.419%" x2="26.702%" y2="54.214%" id="G"><stop stop-color="#A9A9A9" offset="0%"/><stop stop-color="#3754D6" offset="100%"/></linearGradient><linearGradient x1="108.251%" y1="33.277%" x2="11.416%" y2="83.364%" id="I"><stop stop-color="#E8F4FF" offset="0%"/><stop stop-color="#85B5F6" offset="100%"/></linearGradient><linearGradient x1="108.058%" y1="32.772%" x2="0%" y2="84.919%" id="J"><stop stop-color="#FFF" offset="0%"/><stop stop-color="#85B5F6" offset="100%"/></linearGradient><linearGradient x1="127.267%" y1="125.071%" x2="11.326%" y2="12.874%" id="K"><stop stop-color="#170022" stop-opacity="0" offset="0%"/><stop stop-color="#5B6EF9" stop-opacity=".616" offset="61.566%"/><stop stop-color="#3EF4FF" offset="100%"/></linearGradient><linearGradient x1="122.49%" y1="125.071%" x2="13.716%" y2="12.874%" id="L"><stop stop-color="#170022" stop-opacity="0" offset="0%"/><stop stop-color="#5B6EF9" stop-opacity=".616" offset="61.566%"/><stop stop-color="#3EF4FF" offset="100%"/></linearGradient><linearGradient x1="92.487%" y1="14.768%" x2="41.535%" y2="87.123%" id="M"><stop stop-color="#EEE" offset="0%"/><stop offset="100%"/></linearGradient><linearGradient x1="92.487%" y1="23.06%" x2="41.535%" y2="78.386%" id="N"><stop stop-color="#EEE" offset="0%"/><stop offset="100%"/></linearGradient><linearGradient x1="55.784%" y1="50%" x2="64.575%" y2="67.538%" id="O"><stop stop-color="#FFF" offset="0%"/><stop stop-color="#E1E1E1" offset="100%"/></linearGradient><linearGradient x1="31.782%" y1="8.625%" x2="57.614%" y2="102.948%" id="P"><stop stop-color="#FFF" offset="0%"/><stop stop-color="#FFF" stop-opacity=".304" offset="63.227%"/><stop stop-opacity="0" offset="100%"/></linearGradient><linearGradient x1="110.402%" y1="38.177%" x2="9.013%" y2="58.516%" id="Q"><stop stop-color="#170022" stop-opacity="0" offset="0%"/><stop stop-color="#5B9DF9" stop-opacity=".616" offset="61.702%"/><stop stop-color="#DFEEFF" offset="100%"/></linearGradient><linearGradient x1="268.083%" y1="19.975%" x2="50%" y2="105.186%" id="R"><stop stop-color="#5D69C9" stop-opacity="0" offset="0%"/><stop stop-color="#5B6EF9" stop-opacity=".401" offset="71.282%"/><stop stop-color="#DAE5FF" stop-opacity=".75" offset="100%"/></linearGradient><linearGradient x1="268.083%" y1="43.349%" x2="50%" y2="62.224%" id="S"><stop stop-color="#5D69C9" stop-opacity="0" offset="0%"/><stop stop-color="#5B6EF9" stop-opacity=".401" offset="71.282%"/><stop stop-color="#DAE5FF" stop-opacity=".75" offset="100%"/></linearGradient><linearGradient x1="50%" y1="0%" x2="50%" y2="100%" id="T"><stop stop-color="#170022" stop-opacity="0" offset="0%"/><stop stop-color="#5B6EF9" stop-opacity=".401" offset="70.825%"/><stop stop-color="#93F2FF" stop-opacity=".75" offset="100%"/></linearGradient><linearGradient x1="-50.711%" y1="50%" x2="142.356%" y2="50%" id="U"><stop stop-color="#1872A2" offset="0%"/><stop stop-color="#D0F0FF" offset="51.982%"/><stop stop-color="#3A7CCD" offset="100%"/></linearGradient><linearGradient x1="-50.711%" y1="50%" x2="142.356%" y2="50%" id="V"><stop stop-color="#1872A2" offset="0%"/><stop stop-color="#D0F0FF" offset="51.982%"/><stop stop-color="#3A7CCD" offset="100%"/></linearGradient><radialGradient cx="50%" cy="50%" fx="50%" fy="50%" r="67.985%" gradientTransform="matrix(0 1 -.7 0 .85 0)" id="s"><stop stop-color="#5D82E2" offset="0%"/><stop stop-color="#B0C0EA" offset="100%"/></radialGradient><radialGradient cx="44.297%" cy="79.875%" fx="44.297%" fy="79.875%" r="67.869%" gradientTransform="matrix(.0402 -.99789 .61774 .06493 -.068 1.19)" id="w"><stop stop-color="#0E071F" stop-opacity="0" offset="0%"/><stop stop-color="#A658FD" stop-opacity=".023" offset="0%"/><stop stop-color="#C9DDFF" stop-opacity=".253" offset="100%"/></radialGradient><radialGradient cx="44.297%" cy="79.875%" fx="44.297%" fy="79.875%" r="68.025%" gradientTransform="matrix(.0401 -.99561 .42669 .09358 .084 1.165)" id="y"><stop stop-color="#0E071F" stop-opacity="0" offset="0%"/><stop stop-color="#A658FD" stop-opacity=".023" offset="0%"/><stop stop-color="#C9DDFF" stop-opacity=".253" offset="100%"/></radialGradient><path d="M1.982 0C4.278.475 9.51.475 17.678 0c.285 4.883.285 8.87 0 11.962 4.503-.726 6.116-.713 8.587-.713 2.47 0 5.94 2.397 6.591 5.83.651 3.432-.944 6.277-4.512 7.138-3.567.86-25.547 3.931-27.17-3.851-1.622-7.782 0-14.35.808-20.366z" id="C"/><path d="M.732.27c2.056.428 6.856.337 14.4-.27.255 3.472.255 6.597 0 9.376 4.033-.653 7.204-1.289 9.607 0 2.404 1.29 3.334 3.023 3.334 5.978 0 2.955-.846 5.643-4.041 6.417-3.195.774-22.247 4.103-23.04-3.259C.2 11.15.732 8.564.732.271z" id="F"/></defs><g transform="translate(0 1)" fill="none" fill-rule="evenodd"><path d="M367.032 300.367c-15.734-37.948-56.194-56.847-99.832-56.847-40.586 0-75.779 23.088-93.161 56.847h192.993z" fill="url(#a)"/><ellipse stroke="url(#b)" stroke-width="6.4" transform="rotate(15 277.525 311.838)" cx="277.525" cy="311.838" rx="152.4" ry="23.6"/><ellipse stroke="url(#c)" stroke-width="19.2" opacity=".25" transform="rotate(15 279.74 298.208)" cx="279.74" cy="298.208" rx="116.8" ry="18"/><g fill="#0067FF"><path d="M232.9 301.367l-3.843 14.292h-3.012l-1.275 4.533h3.072l-9.893 36.923h-5.038l-.968 2.986h5.206l-.68 2.534h-2.306l-.618 1.794h2.444l-.72 2.684h-19.435l4.732-17.307-29.53.018 2.223-7.335h4.532l1.248-3.409h-3.555l1.17-3.283h-1.943l.773-2.352 38.061-32.078H232.9zm-23.96 17.5l-24.504 21.041h18.733l5.77-21.04zm-38.23 16.35h3.238l-1.049 3.2h-3.2zm-4.567 8.94h3.2l-1.04 3.2H165zm51.491 16.42h2.744l-.612 2.744H217zm4.118-13.901h8.048l-.77 2.744H221zm5.639 4.759h1.623l-.414 1.6H227zm-5.569.69h3.142l-.764 3.2H221zm-51.15-12.037h1.568l-.403 1.6h-1.6zm46.724 24.222h1.607l-.403 1.6H217zm142.564-62.943l-3.87 14.292h-2.811l-1.475 4.533h3.072l-9.893 36.923h-5.038l-.968 2.986h5.206l-.68 2.534h-2.306l-.617 1.794h2.443l-.719 2.684h-19.436l4.732-17.307-29.53.018 2.223-7.335h4.532l1.248-3.409h-3.555l1.17-3.283h-1.943l.773-2.352 38.062-32.078h19.38zm-23.987 17.5l-24.503 21.041h18.733l5.77-21.04zm-38.228 16.35h3.237l-1.049 3.2h-3.2zm-4.568 8.94h3.2l-1.04 3.2h-3.303zm51.491 16.42h2.744l-.612 2.744h-2.766zm4.118-13.901h8.048l-.77 2.744h-8.03zm5.605 4.759h1.623l-.414 1.6H354zm-5.535.69h3.142l-.764 3.2h-3.2zm-51.15-12.037h1.568l-.403 1.6h-1.6zm46.724 24.222h1.607l-.403 1.6h-1.6zm-108.992-22.854h3.029l-.914 3.088h-3.02zm54.781-6.207h1.67l-.413 1.545h-1.712z"/><path d="M288.843 329.08h-2.46l-1.13 4.008h3.59c-1.178 21.347-9.133 32.021-23.867 32.021-14.733 0-23.662-6.908-26.785-20.724h3.392l1.293-4.342h-5.602c.052-.808.358-3.44.917-7.895.838-6.682 5.19-30.4 26.785-30.4 14.396 0 22.352 9.11 23.867 27.332zm-18.952-17.297c-4.267-1.143-10.276 7.444-13.421 19.18-3.145 11.736-2.234 22.177 2.033 23.32 4.268 1.144 10.277-7.443 13.422-19.179 3.144-11.736 2.234-22.177-2.034-23.32zm-21.701 20.115h-3.297l-.918 3.09h3.41l.805-3.09zm37.063 10.5h-2.089l-.613 2.292h2.02l.682-2.291zm-2.621-3.92h-3.274l-.828 3.091h3.231l.87-3.09z"/></g><ellipse fill="url(#d)" transform="rotate(-15 227.44 259.2)" cx="227.44" cy="259.2" rx="8.4" ry="2.24"/><ellipse fill="url(#e)" transform="rotate(-15 255.8 261.76)" cx="255.8" cy="261.76" rx="12.6" ry="3.36"/><ellipse fill="url(#f)" opacity=".745" transform="rotate(-15 220.72 278.24)" cx="220.72" cy="278.24" rx="16.8" ry="4.48"/><path d="M280.5 233.563c-5.38 2.898-5.608 11.753-2.476 15.06 2.089 2.205 12.205 4.257 30.35 6.156l-.38 8.714 14.077.64c.98-3.821 1.469-7.306 1.469-10.452 0-4.457-.232-6.53-2.309-9.97-2.077-3.44-9.404-5.076-19.973-7.606-10.569-2.53-15.38-5.44-20.758-2.542z" fill="url(#g)" transform="rotate(-8 299.764 248.244)"/><path d="M255.962 235.52c-5.38 2.898-5.608 11.754-2.476 15.06 2.088 2.205 11.854 4.798 29.297 7.78l.858 10.216h15.696v-13.639c0-4.72 0-4.356-2.503-7.584-2.503-3.228-9.545-6.76-20.114-9.29-10.569-2.53-15.38-5.44-20.758-2.543z" fill="url(#h)"/><path d="M259.155 238.092c-1.691 1.272-2.221 3.36-1.592 6.263.945 4.356 7.217 5.003 14.738 6.117 5.014.743 10.442 1.973 16.284 3.69" stroke="url(#i)" stroke-width="2.4" opacity=".497" stroke-linecap="round"/><path fill="#8BBFE8" d="M241.343 203.647l12.373-3.515 8.405-2.232 8.719 3.053-20.965 5.57z"/><path fill="#D3ECFF" d="M241.343 203.647v24.108l8.532 3.587v-24.819z"/><path fill="#6981A7" d="M249.875 231.342l17.267-6.56v-22.676l-17.267 4.417z"/><path d="M280.723 209.258c3.201 0 13.151 7.662 15.007 9.745 4.476-2.284 9.947-4.705 16.413-7.263l3.852 5.534c-8.987 7.88-15.638 11.82-19.952 11.82-4.314 0-10.488-2.342-18.522-7.025-3.624-1.672-5.176-4.225-4.656-7.66.781-5.15 4.656-5.15 7.858-5.15z" fill="url(#j)" transform="rotate(14 294.381 219.176)"/><path d="M256.619 199.07c-3.227.84-5.393 4.99-5.393 8.2v24.985c0 7.708 15.74 8.513 22.99 8.513 7.251 0 14.795-2.26 14.795-8.513s.304-6.166 0-12.957-.475-10.63-1.186-13.553c-.712-2.922-2.455-4.527-5.09-6.675-2.635-2.148-22.89-.84-26.116 0z" fill="url(#k)"/><circle fill="url(#l)" cx="270.84" cy="177.72" r="27.16"/><circle fill="url(#m)" cx="271.2" cy="178.08" r="26.8"/><path d="M297.348 172.584c.318 1.663.485 3.38.485 5.136 0 15-12.16 27.16-27.16 27.16-.51 0-1.018-.014-1.522-.042a93.822 93.822 0 00-3.776-.514 11.774 11.774 0 01-.604-.087 27.16 27.16 0 01-2.17-.577c-12.361-4.491-18.773-27.755.688-24.686 17.533 2.765 28.733 1.605 34.02-6.33z" fill="#000"/><ellipse fill="url(#n)" transform="rotate(-16 246.699 183.467)" cx="246.699" cy="183.467" rx="8.4" ry="9.52"/><ellipse fill="url(#o)" transform="rotate(-16 246.226 183.27)" cx="246.226" cy="183.269" rx="8" ry="9.2"/><ellipse fill="#EDF5FF" transform="rotate(-16 244.779 183.787)" cx="244.779" cy="183.787" rx="5.6" ry="6.4"/><ellipse fill="url(#p)" transform="rotate(-16 243.979 182.987)" cx="243.979" cy="182.987" rx="4" ry="4.8"/><path d="M263.695 206.523c3.202 0 12.528 6.435 14.384 8.518 4.476-2.284 11.116-4.513 19.921-6.687l1.764 7.904c-9.65 6.49-16.632 9.734-20.946 9.734s-10.422-2.22-18.324-6.658c-3.624-1.672-5.176-4.225-4.656-7.66.78-5.15 4.656-5.15 7.857-5.15z" fill="#E8F2FC"/><path d="M313.415 216.258l1.78-3.894c1.044-1.632 2.119-1.786 3.225-.461.618-1.96 2.52-2.264 5.792-.887 3.272 1.378 3.132 5.216 2.294 7.182-.837 1.967-3.47 4.453-6.63 4.453-2.107 0-3.462-.03-4.063-.091l-2.398-6.302z" fill="url(#q)"/><path fill="url(#r)" d="M304.136 207.028l12.091-14.21 27.57-1.938-18.277 21.188-25.756.249z"/><path fill="url(#s)" opacity=".45" d="M322.876 204.302L316 207.2l3.398-4.653-1.895-2.432h4.972l4.619-4.115v4.115H332l-5.949 3.267-1.376 2.887z"/><path fill="#DFE5FB" d="M316.227 192.818L305.92 204.88l-.234-1.068 10.542-12.064z"/><path d="M298 208.354l2.855-4.707c1.472-1.917 2.507-1.917 3.106 0 .899 2.876.177-3.082 3.805-1.54 3.628 1.54 5.858 5.613 4.929 7.813-.929 2.2-4.318 6.338-7.824 6.338h-5.107L298 208.354z" fill="url(#t)"/><path d="M345.423 219.316c7.733-2.141 45.532-27.019 90.149 24.806 47.885 55.62 63.61-4.888 6.8-7.904 17.542 1.751 24.187-2.414 19.962-22.253-2.817-13.226-12.367-16.47-28.65-9.734-3.746-13.007-10.196-19.511-19.348-19.511s-15.009 6.694-17.57 20.083c-5.59-14.306-12.067-20.616-19.433-18.93-7.366 1.687-9.902 7.996-7.607 18.93-21.357 11.102-29.457 15.94-24.303 14.513z" fill="url(#u)" opacity=".65" transform="rotate(-30 411.3 226.131)"/><path d="M59.533 250.989c5.83-1.613 34.328-20.356 67.966 18.69 36.102 41.905 47.957-3.683 5.126-5.956 13.226 1.32 18.236-1.818 15.05-16.765-2.123-9.965-9.323-12.41-21.599-7.334-2.825-9.8-7.687-14.7-14.587-14.7-6.9 0-11.316 5.044-13.247 15.13-4.214-10.777-9.097-15.531-14.65-14.26-5.554 1.27-7.466 6.023-5.736 14.26-16.101 8.366-22.209 12.01-18.323 10.935z" fill="url(#v)" transform="scale(-1 1) rotate(-8 0 1817.757)"/><path d="M189.175 227.888c1.928-.537 11.352-6.785 22.477 6.23 11.939 13.969 15.86-1.227 1.695-1.985 4.374.44 6.03-.606 4.977-5.588-.702-3.322-3.083-4.137-7.143-2.445-.934-3.267-2.542-4.9-4.824-4.9s-3.742 1.681-4.381 5.044c-1.393-3.593-3.008-5.178-4.845-4.754-1.837.423-2.469 2.008-1.897 4.754-5.325 2.788-7.344 4.003-6.06 3.644z" fill="url(#w)" transform="scale(-1 1) rotate(-58 0 600.512)"/><path d="M139.712 83.35c-.347-11.678 6.77-19.121 21.352-22.33 14.581-3.208 26.769 3.74 36.563 20.842-.408-18.987 10.662-27.337 33.21-25.05 22.547 2.286 32.025 16.733 28.432 43.34 26.262-16.83 50.431-11.855 72.507 14.928 22.076 26.782 15.602 50.657-19.422 71.625-21.495-39.735-53.028-60.311-94.6-61.73-51.295-1.75-75.74 19.09-98.318 40.41-22.579 21.32-77.507-47.605-50.72-75.596 17.858-18.66 41.523-20.806 70.996-6.44z" fill="url(#x)" transform="rotate(-8 203.047 121.574)"/><path d="M384.102 265.793c-.075-2.514 1.467-4.117 4.624-4.807 3.158-.691 5.797.804 7.918 4.486-.088-4.087 2.31-5.885 7.192-5.393 4.883.493 7.08 3.389 6.59 8.69 4.608-2.604 8.64-1.957 12.1 1.941 3.458 3.898 2.973 8.328-1.456 13.29-4.655-8.554-11.484-12.984-20.487-13.29-11.108-.377-16.401 4.11-21.29 8.7-4.89 4.59-14.487-6.97-8.686-12.997 3.867-4.017 8.366-4.224 13.495-.62z" fill="url(#y)" opacity=".497" transform="scale(-1 1) rotate(15 0 -2741.995)"/><circle fill="url(#z)" opacity=".434" cx="5" cy="129.8" r="5"/><circle fill="url(#z)" opacity=".144" cx="78" cy="294" r="12"/><circle fill="url(#z)" opacity=".253" cx="486.111" cy="179.6" r="11.6"/><circle fill="url(#z)" opacity=".434" cx="282.4" cy="64" r="2.4"/><circle fill="url(#z)" opacity=".434" cx="301.2" cy="74" r="1.2"/><circle fill="url(#z)" opacity=".251" cx="187.5" cy="169.5" r="8.5"/><circle fill="url(#z)" opacity=".434" transform="matrix(-1 0 0 1 896 0)" cx="448" cy="153.6" r="2.4"/><ellipse stroke="url(#A)" stroke-width="1.6" opacity=".504" transform="rotate(-30 144.8 26.508)" cx="144.8" cy="26.508" rx="41.6" ry="6.4"/><ellipse stroke="url(#B)" stroke-width=".8" opacity=".301" transform="rotate(15 485.311 181.2)" cx="485.311" cy="181.2" rx="18" ry="2.8"/><circle fill="url(#z)" opacity=".403" cx="145.2" cy="26" r="24.4"/><g transform="translate(281.66 267.04)"><mask id="E" fill="#fff"><use xlink:href="#C"/></mask><use fill="#626262" xlink:href="#C"/><path d="M.11 17.29c1.681 3.203 4.096 5.112 7.243 5.727 4.722.923 19.685-.189 21.518-1.183 1.222-.662 2.95-2.015 5.184-4.058l-1.417 5.626-6.791 4.13H14.872L4.582 25.54-1 20.816.11 17.29z" fill="url(#D)" opacity=".8" mask="url(#E)"/></g><g transform="translate(309 259.2)"><mask id="H" fill="#fff"><use xlink:href="#F"/></mask><use fill="#3C3C3C" xlink:href="#F"/><path d="M-1.018 15.8c1.487 2.814 3.621 4.492 6.405 5.032 4.175.81 17.408-.166 19.029-1.04 1.081-.581 2.609-1.77 4.584-3.565l-1.253 4.943-6.006 3.63h-9.705l-9.1-1.752L-2 18.898l.982-3.098z" fill="url(#G)" opacity=".599" mask="url(#H)"/></g><path d="M282.783 258.36c.35 0 4.215-4.373 11.598-13.12 2.863 1.116 4.658 2.569 5.383 4.358.726 1.79.584 4.146-.427 7.07-11.385 1.128-16.904 1.692-16.554 1.692z" fill="url(#I)"/><path d="M309.2 253.517c.32 0 3.838-4.466 10.555-13.399 2.085.283 3.663 1.597 4.735 3.942 1.072 2.345.962 4.611-.33 6.799-10.294 1.772-15.28 2.658-14.96 2.658z" fill="url(#J)"/><path d="M267.774 207.886c-2.613.54-4.583 1.76-5.91 3.658s-1.9 4.442-1.721 7.632l1.72.93c-.119-3.512.416-6.068 1.607-7.667 1.19-1.6 3.105-2.853 5.743-3.761l-1.44-.792z" fill="url(#K)"/><path d="M270.596 209.509c-2.059.601-3.752 1.851-5.079 3.75-1.327 1.897-1.907 4.505-1.741 7.822l3.035 1.42c-.108-3.322.434-5.783 1.624-7.382 1.19-1.6 2.753-2.939 4.687-4.018l-2.526-1.592z" fill="url(#L)"/><path d="M283.408 180.885c-.55 9.95-5.973 16.675-16.266 20.174-15.44 5.25 15.02 2.196 19.963-2.527 4.943-4.723 10.722-9.836 10.11-24.4-3.215 4.136-7.818 6.387-13.807 6.753z" fill="url(#M)" opacity=".796"/><path d="M286.05 188.09c-1.103 5.7-4.882 9.634-11.336 11.803-9.682 3.255 6.553 2.087 9.416.507 2.862-1.58 10.794-7.36 12.364-17.139-2.017 2.564-5.498 4.174-10.443 4.83z" fill="url(#N)" opacity=".804"/><path fill="#CBCCE0" d="M316.227 192.818l27.57-1.938v-1.046l-27.57 1.914z"/><path d="M287.475 267.837c-.71 9.327-4.268 13.878-1.484 16.8 2.784 2.92 11.983-.742 12.408-5.337.283-3.063.335-6.989.156-11.777-1.6.31-5.294.415-11.08.314z" fill="#474747"/><path d="M314.838 260.236c-.538 6.985-2.111 9.52 0 11.707 2.11 2.189 7.96.32 8.282-3.122.214-2.294.254-5.235.118-8.821-1.213.233-4.013.311-8.4.236z" fill="#252525"/><path d="M325.603 59.502c-1.352-2.942 1.467-7.222 6.639-11.187 3.447-2.644 8.673-4.597 15.675-5.858l4.217 9.616c-3.843 4.702-7.733 7.534-11.668 8.497-5.904 1.444-13.51 1.874-14.863-1.068z" fill="url(#O)"/><path d="M329.946 50.324c1.97 1.04 3.36 2.615 4.17 4.724.812 2.108.993 4.322.544 6.642-4.962.748-8.093-.04-9.394-2.361-1.3-2.322.26-5.323 4.68-9.005z" fill="#898989"/><path d="M329.425 53c-.568 3.34-.3 5.284.806 5.834a9.548 9.548 0 003.425.986v1.33c-2.703.394-4.883.106-6.539-.863-2.484-1.453-.966-5.486.982-7.287 1.299-1.2 1.74-1.2 1.326 0z" fill="url(#P)"/><path fill="url(#Q)" d="M337.922 51.256l-.322 1.039 1.026.244 19.306-7.916 1.042-1.423h-1.772z"/><path fill="url(#R)" d="M335.053 48.2l13.234-5 2.935-9.578-15.151 6.217z"/><path fill="url(#S)" d="M347.803 60.463l13.226-5.314-9.195-3.949-12.634 5.859z"/><path fill="url(#T)" d="M242.809 213l5.098 1.372v9.787l-5.098-1.675z"/><path d="M283.442 266.304c4.984.883 10.283.989 15.895.317.32 1.218.373 2.3.158 3.245-5.183 1.996-10.58 1.864-16.19-.397-.333-1.133-.287-2.189.137-3.165z" fill="url(#U)"/><path d="M309.78 258.656c5.124.344 9.993.245 14.609-.296.185 1.093.116 2.004-.209 2.733-5.21 1.138-10.01 1.09-14.4-.143-.273-.913-.273-1.678 0-2.294z" fill="url(#V)"/></g></svg>